<svg width="18" height="18" viewBox="0 0 18 18" fill="none" xmlns="http://www.w3.org/2000/svg">
<path d="M8.7168 0.046875C11.0154 0.0494375 13.2194 0.963497 14.8447 2.58887C16.4701 4.21424 17.3842 6.41818 17.3867 8.7168C17.3867 10.4314 16.8783 12.1075 15.9258 13.5332C14.9731 14.959 13.6184 16.0704 12.0342 16.7266C10.45 17.3827 8.70708 17.5542 7.02539 17.2197C5.34362 16.8852 3.79843 16.0601 2.58594 14.8477C1.37344 13.6352 0.548406 12.09 0.213867 10.4082C-0.120641 8.72652 0.0509342 6.98355 0.707031 5.39941C1.36324 3.81519 2.47463 2.46048 3.90039 1.50781C5.23689 0.614881 6.79345 0.112129 8.39551 0.0527344L8.7168 0.046875ZM11.3291 2.41016C10.0817 1.89347 8.709 1.75808 7.38477 2.02148C6.06063 2.28492 4.84431 2.93499 3.88965 3.88965C2.93499 4.84431 2.28492 6.06063 2.02148 7.38477C1.75808 8.709 1.89347 10.0817 2.41016 11.3291C2.92679 12.5764 3.80138 13.6425 4.92383 14.3926C6.04646 15.1427 7.36662 15.543 8.7168 15.543C10.5267 15.541 12.2622 14.8218 13.542 13.542C14.8218 12.2622 15.541 10.5267 15.543 8.7168C15.543 7.36662 15.1427 6.04646 14.3926 4.92383C13.6425 3.80138 12.5764 2.92679 11.3291 2.41016ZM12.0703 9.72461C12.1918 9.74006 12.309 9.7796 12.415 9.84082C12.521 9.90202 12.6135 9.98367 12.6875 10.0811C12.7616 10.1785 12.8161 10.2896 12.8467 10.4082C12.8773 10.5268 12.8839 10.6503 12.8662 10.7715C12.8486 10.8926 12.8073 11.0094 12.7441 11.1143H12.7432C11.8632 12.6389 10.394 13.5127 8.7168 13.5127C7.14425 13.5127 5.75664 12.7457 4.8623 11.3926L4.69043 11.1143C4.57399 10.9032 4.54493 10.6551 4.60938 10.4229C4.67397 10.1902 4.82705 9.99188 5.03613 9.87109C5.24527 9.75032 5.4937 9.71603 5.72754 9.77637C5.96091 9.8366 6.1615 9.98614 6.28613 10.1924V10.1934C6.60352 10.7424 7.34427 11.6689 8.7168 11.6689C10.0894 11.6689 10.8301 10.7416 11.1475 10.1934V10.1924C11.2067 10.0853 11.2868 9.99087 11.3828 9.91504C11.4788 9.83931 11.5893 9.78376 11.707 9.75098C11.825 9.71822 11.9488 9.70917 12.0703 9.72461ZM6.05371 5.88184C6.29512 5.92986 6.51736 6.04861 6.69141 6.22266C6.8653 6.39661 6.98418 6.61815 7.03223 6.85938C7.08025 7.10079 7.05513 7.3517 6.96094 7.5791C6.86674 7.80638 6.70749 8.001 6.50293 8.1377C6.29836 8.27438 6.05755 8.34662 5.81152 8.34668C5.48153 8.34668 5.16502 8.21572 4.93164 7.98242C4.69825 7.74903 4.56641 7.4326 4.56641 7.10254C4.56641 6.85642 4.63963 6.61578 4.77637 6.41113C4.91309 6.20651 5.1076 6.04732 5.33496 5.95312C5.56227 5.85897 5.81239 5.8339 6.05371 5.88184ZM11.6221 5.8584C11.952 5.8584 12.2686 5.98938 12.502 6.22266C12.7353 6.45604 12.8672 6.77249 12.8672 7.10254C12.8672 7.34866 12.794 7.5893 12.6572 7.79395C12.5205 7.99857 12.326 8.15775 12.0986 8.25195C11.8713 8.34611 11.6212 8.37119 11.3799 8.32324C11.1385 8.27522 10.9162 8.15647 10.7422 7.98242C10.5683 7.80846 10.4494 7.58694 10.4014 7.3457C10.3533 7.10429 10.3785 6.85338 10.4727 6.62598C10.5669 6.39872 10.7261 6.20407 10.9307 6.06738C11.1352 5.9307 11.376 5.85846 11.6221 5.8584Z" fill="#543C52" stroke="#543C52" style="fill:#543C52;fill:color(display-p3 0.3294 0.2353 0.3216);fill-opacity:1;stroke:#543C52;stroke:color(display-p3 0.3294 0.2353 0.3216);stroke-opacity:1;" stroke-width="0.09375"/>
</svg>
