<svg width="8" height="13" viewBox="0 0 8 13" fill="none" xmlns="http://www.w3.org/2000/svg">
<path fill-rule="evenodd" clip-rule="evenodd" d="M6.98118 12.2975C6.79521 12.4832 6.54311 12.5876 6.28026 12.5876C6.01741 12.5876 5.76532 12.4832 5.57934 12.2975L0.289359 7.00752C0.103614 6.82154 -0.000717927 6.56944 -0.000717916 6.30659C-0.000717904 6.04375 0.103614 5.79165 0.289359 5.60567L5.57934 0.31569C5.67014 0.21824 5.77965 0.140077 5.90132 0.0858656C6.02299 0.0316539 6.15433 0.0025041 6.28751 0.000154321C6.42069 -0.00219546 6.55297 0.022303 6.67648 0.0721888C6.79998 0.122075 6.91218 0.196326 7.00636 0.290512C7.10055 0.384699 7.1748 0.496891 7.22469 0.620396C7.27457 0.743902 7.29907 0.87619 7.29672 1.00937C7.29437 1.14255 7.26522 1.27389 7.21101 1.39556C7.1568 1.51723 7.07863 1.62673 6.98118 1.71753L2.39213 6.30659L6.98118 10.8957C7.16693 11.0816 7.27126 11.3337 7.27126 11.5966C7.27126 11.8594 7.16693 12.1115 6.98118 12.2975Z" fill="#81818D" style="fill:#81818D;fill:color(display-p3 0.5059 0.5059 0.5529);fill-opacity:1;"/>
</svg>
