<<<<<<< HEAD
<svg width="15" height="17" viewBox="0 0 15 17" fill="none" xmlns="http://www.w3.org/2000/svg">
<path d="M0.832031 4.16659H14.1654M5.83203 7.49992V12.4999M9.16536 7.49992V12.4999M1.66536 4.16659L2.4987 14.1666C2.4987 14.6086 2.67429 15.0325 2.98685 15.3451C3.29941 15.6577 3.72334 15.8333 4.16536 15.8333H10.832C11.2741 15.8333 11.698 15.6577 12.0105 15.3451C12.3231 15.0325 12.4987 14.6086 12.4987 14.1666L13.332 4.16659M4.9987 4.16659V1.66659C4.9987 1.44557 5.0865 1.23361 5.24278 1.07733C5.39906 0.921049 5.61102 0.833252 5.83203 0.833252H9.16536C9.38638 0.833252 9.59834 0.921049 9.75462 1.07733C9.9109 1.23361 9.9987 1.44557 9.9987 1.66659V4.16659" stroke="black" style="stroke:black;stroke-opacity:1;" stroke-width="1.66667" stroke-linecap="round" stroke-linejoin="round"/>
=======
<svg width="20" height="20" viewBox="0 0 20 20" fill="none" xmlns="http://www.w3.org/2000/svg">
<path d="M3.33203 5.83333H16.6654M8.33203 9.16667V14.1667M11.6654 9.16667V14.1667M4.16536 5.83333L4.9987 15.8333C4.9987 16.2754 5.17429 16.6993 5.48685 17.0118C5.79941 17.3244 6.22334 17.5 6.66536 17.5H13.332C13.7741 17.5 14.198 17.3244 14.5105 17.0118C14.8231 16.6993 14.9987 16.2754 14.9987 15.8333L15.832 5.83333M7.4987 5.83333V3.33333C7.4987 3.11232 7.5865 2.90036 7.74278 2.74408C7.89906 2.5878 8.11102 2.5 8.33203 2.5H11.6654C11.8864 2.5 12.0983 2.5878 12.2546 2.74408C12.4109 2.90036 12.4987 3.11232 12.4987 3.33333V5.83333" stroke="black" style="stroke:black;stroke-opacity:1;" stroke-width="1.66667" stroke-linecap="round" stroke-linejoin="round"/>
>>>>>>> 050fd11c130dd5bf46634c64f903eff75eb1ebe8
</svg>
