<svg width="15" height="17" viewBox="0 0 15 17" fill="none" xmlns="http://www.w3.org/2000/svg">
<path d="M0.832031 4.16659H14.1654M5.83203 7.49992V12.4999M9.16536 7.49992V12.4999M1.66536 4.16659L2.4987 14.1666C2.4987 14.6086 2.67429 15.0325 2.98685 15.3451C3.29941 15.6577 3.72334 15.8333 4.16536 15.8333H10.832C11.2741 15.8333 11.698 15.6577 12.0105 15.3451C12.3231 15.0325 12.4987 14.6086 12.4987 14.1666L13.332 4.16659M4.9987 4.16659V1.66659C4.9987 1.44557 5.0865 1.23361 5.24278 1.07733C5.39906 0.921049 5.61102 0.833252 5.83203 0.833252H9.16536C9.38638 0.833252 9.59834 0.921049 9.75462 1.07733C9.9109 1.23361 9.9987 1.44557 9.9987 1.66659V4.16659" stroke="black" style="stroke:black;stroke-opacity:1;" stroke-width="1.66667" stroke-linecap="round" stroke-linejoin="round"/>
</svg>
